<svg width="48" height="48" viewBox="0 0 48 48" fill="none" xmlns="http://www.w3.org/2000/svg">
<path d="M21.0743 15.0741C22.2451 14.84 23.1817 13.435 22.7134 12.2642C22.4792 11.0934 21.0743 10.1568 19.9035 10.6251C13.5811 12.03 9.36621 17.6499 9.36621 24.2064C9.36621 31.9337 15.6886 38.2561 23.4159 38.2561C30.6749 38.2561 36.7631 32.6362 37.4656 25.3772C37.6997 24.2064 36.5289 23.0356 35.3581 22.8015C34.1873 22.5673 33.0165 23.7381 32.7823 24.9089C32.314 29.5921 28.0991 33.5729 23.4159 33.5729C18.2643 33.5729 14.0494 29.358 14.0494 24.2064C14.0494 19.7574 16.8594 16.0108 21.0743 15.0741Z" fill="url(#paint0_linear_536_23)"/>
<path d="M44.4906 21.8652C43.0857 21.8652 42.149 22.8019 42.149 24.2068C42.149 34.5099 33.7192 42.9397 23.4161 42.9397C13.113 42.9397 4.68323 34.5099 4.68323 24.2068C4.68323 14.3721 12.4105 6.17645 22.2453 5.47396C23.6503 5.47396 24.5869 4.30316 24.3528 2.89819C24.3528 1.49322 23.182 0.556583 21.777 0.790743C9.60061 1.72738 0 11.7963 0 24.2068C0 37.0857 10.5372 47.623 23.4161 47.623C36.295 47.623 46.8322 37.0857 46.8322 24.2068C46.8322 22.8019 45.6614 21.8652 44.4906 21.8652Z" fill="url(#paint1_linear_536_23)"/>
<path d="M27.8659 16.4791L21.7777 22.5673C20.841 23.5039 20.841 24.9089 21.7777 25.8455C22.246 26.3138 22.9485 26.548 23.4168 26.548C23.8851 26.548 24.5876 26.3138 25.0559 25.8455L31.1441 19.7573L35.1249 20.9281C35.359 20.9281 35.5932 20.9281 35.8273 20.9281C36.5298 20.9281 36.9982 20.694 37.4665 20.2256L46.5988 10.8592C47.0671 10.3909 47.3012 9.45423 47.3012 8.75177C47.3012 8.04929 46.5988 7.3468 45.8963 7.11264L41.6814 5.70767L40.2764 1.49277C40.0422 0.790293 39.3398 0.0878104 38.6373 0.0878104C37.9348 -0.146351 36.9982 0.0878104 36.5298 0.790293L27.3975 10.1567C26.6951 10.8592 26.4609 11.7958 26.9292 12.4983L27.8659 16.4791ZM36.9981 6.87848L37.7006 8.51761C37.9348 9.22013 38.4031 9.68843 39.1056 9.92253L40.7447 10.625L35.1249 16.2449L32.3149 15.3083L31.3783 12.4983L36.9981 6.87848Z" fill="url(#paint2_linear_536_23)"/>
<defs>
<linearGradient id="paint0_linear_536_23" x1="-19.9279" y1="-7.32242" x2="-19.9279" y2="36.0985" gradientUnits="userSpaceOnUse">
<stop stop-color="#6E3995"/>
<stop offset="0.485" stop-color="#553D93"/>
<stop offset="0.745" stop-color="#4C3E95"/>
<stop offset="1" stop-color="#404094"/>
</linearGradient>
<linearGradient id="paint1_linear_536_23" x1="-48.7711" y1="-29.3449" x2="-48.7711" y2="43.9795" gradientUnits="userSpaceOnUse">
<stop stop-color="#6E3995"/>
<stop offset="0.485" stop-color="#553D93"/>
<stop offset="0.745" stop-color="#4C3E95"/>
<stop offset="1" stop-color="#404094"/>
</linearGradient>
<linearGradient id="paint2_linear_536_23" x1="-6.2366" y1="-17.0498" x2="-6.2366" y2="24.4842" gradientUnits="userSpaceOnUse">
<stop stop-color="#6E3995"/>
<stop offset="0.485" stop-color="#553D93"/>
<stop offset="0.745" stop-color="#4C3E95"/>
<stop offset="1" stop-color="#404094"/>
</linearGradient>
</defs>
</svg>
