<svg width="53" height="54" viewBox="0 0 53 54" fill="none" xmlns="http://www.w3.org/2000/svg">
<path d="M26.2957 2L30.5933 8.09135L37.1083 4.46791L38.3374 11.8207L45.7793 11.3828L43.6965 18.5407L50.5914 21.3752L45.6091 26.9205L50.5914 32.4659L43.6965 35.3003L45.7793 42.4582L38.3374 42.0203L37.1083 49.3731L30.5933 45.7497L26.2957 51.841L21.9981 45.7497L15.4831 49.3731L14.254 42.0203L6.81206 42.4582L8.89494 35.3003L2 32.4659L6.98231 26.9205L2 21.3752L8.89494 18.5407L6.81206 11.3828L14.254 11.8207L15.4831 4.46791L21.9981 8.09135L26.2957 2Z" stroke="url(#paint0_linear_536_22)" stroke-width="3.88973" stroke-linecap="round" stroke-linejoin="round"/>
<path d="M19.7931 34.2735L30.0614 19.2363H33.6918L23.4236 34.2735H19.7931ZM21.2324 27.3994C20.4734 27.3994 19.7931 27.2418 19.1917 26.9268C18.5902 26.5974 18.1104 26.1176 17.7524 25.4875C17.4087 24.8574 17.2368 24.0983 17.2368 23.2104C17.2368 22.3225 17.4087 21.5707 17.7524 20.9549C18.1104 20.3247 18.5902 19.845 19.1917 19.5156C19.7931 19.1862 20.4734 19.0215 21.2324 19.0215C21.9914 19.0215 22.6717 19.1862 23.2732 19.5156C23.8747 19.845 24.3473 20.3247 24.691 20.9549C25.049 21.5707 25.228 22.3225 25.228 23.2104C25.228 24.0983 25.049 24.8574 24.691 25.4875C24.3473 26.1176 23.8747 26.5974 23.2732 26.9268C22.6717 27.2418 21.9914 27.3994 21.2324 27.3994ZM21.2324 25.0793C21.4759 25.0793 21.6907 24.9505 21.8769 24.6927C22.0774 24.4206 22.1776 23.9265 22.1776 23.2104C22.1776 22.4944 22.0774 22.0075 21.8769 21.7497C21.6907 21.4776 21.4759 21.3415 21.2324 21.3415C21.0033 21.3415 20.7885 21.4776 20.588 21.7497C20.3875 22.0075 20.2872 22.4944 20.2872 23.2104C20.2872 23.9265 20.3875 24.4206 20.588 24.6927C20.7885 24.9505 21.0033 25.0793 21.2324 25.0793ZM32.2526 34.4884C31.4935 34.4884 30.8133 34.3308 30.2118 34.0158C29.6103 33.6864 29.1305 33.2066 28.7725 32.5765C28.4288 31.9464 28.257 31.1873 28.257 30.2994C28.257 29.4115 28.4288 28.6596 28.7725 28.0438C29.1305 27.4137 29.6103 26.9339 30.2118 26.6046C30.8133 26.2752 31.4935 26.1105 32.2526 26.1105C33.0116 26.1105 33.6918 26.2752 34.2933 26.6046C34.8948 26.9339 35.3674 27.4137 35.7111 28.0438C36.0692 28.6596 36.2482 29.4115 36.2482 30.2994C36.2482 31.1873 36.0692 31.9464 35.7111 32.5765C35.3674 33.2066 34.8948 33.6864 34.2933 34.0158C33.6918 34.3308 33.0116 34.4884 32.2526 34.4884ZM32.2526 32.1683C32.496 32.1683 32.7108 32.0394 32.897 31.7817C33.0975 31.5096 33.1978 31.0155 33.1978 30.2994C33.1978 29.5834 33.0975 29.0964 32.897 28.8387C32.7108 28.5666 32.496 28.4305 32.2526 28.4305C32.0234 28.4305 31.8086 28.5666 31.6081 28.8387C31.4076 29.0964 31.3074 29.5834 31.3074 30.2994C31.3074 31.0155 31.4076 31.5096 31.6081 31.7817C31.8086 32.0394 32.0234 32.1683 32.2526 32.1683Z" fill="url(#paint1_linear_536_22)"/>
<defs>
<linearGradient id="paint0_linear_536_22" x1="-48.6031" y1="-30.0091" x2="-48.6031" y2="47.9663" gradientUnits="userSpaceOnUse">
<stop stop-color="#6E3995"/>
<stop offset="0.485" stop-color="#553D93"/>
<stop offset="0.745" stop-color="#4C3E95"/>
<stop offset="1" stop-color="#404094"/>
</linearGradient>
<linearGradient id="paint1_linear_536_22" x1="-2.56167" y1="9.08828" x2="-2.56167" y2="33.286" gradientUnits="userSpaceOnUse">
<stop stop-color="#6E3995"/>
<stop offset="0.485" stop-color="#553D93"/>
<stop offset="0.745" stop-color="#4C3E95"/>
<stop offset="1" stop-color="#404094"/>
</linearGradient>
</defs>
</svg>
