<svg width="798" height="248" viewBox="0 0 798 248" fill="none" xmlns="http://www.w3.org/2000/svg">
<path d="M399 128L399 160.5C399 171.546 407.954 180.5 419 180.5L774 180.5C785.046 180.5 794 189.454 794 200.5L794 248" stroke="#E2E8F0" stroke-width="7"/>
<line x1="399" y1="128" x2="399" y2="248" stroke="#E2E8F0" stroke-width="7"/>
<path d="M399 128L399 160.5C399 171.546 390.046 180.5 379 180.5L24 180.5C12.9543 180.5 4.00002 189.454 4.00002 200.5L3.99999 248" stroke="#F1F5F9" stroke-width="7"/>
<path d="M399 120C429.928 120 455 94.9279 455 64C455 33.0721 429.928 8 399 8C368.072 8 343 33.0721 343 64C343 94.9279 368.072 120 399 120Z" fill="#26536B" stroke="#E4F8FF" stroke-width="16"/>
<path d="M399.176 30.1475L371.716 42.4143L371.716 63.8814C371.716 80.9171 383.417 93.7359 399.176 97.6154V30.1475Z" fill="#F1F5F9"/>
<path d="M399.177 63.8815V97.6153C414.697 93.7359 426.221 80.9171 426.221 63.8813L399.177 63.8815Z" fill="#CFD8E3"/>
<path d="M399.177 30.1475L399.177 63.8814H426.221V42.4143L399.177 30.1475Z" fill="#E2E8F0"/>
<circle opacity="0.5" cx="399" cy="64.0361" r="20.7158" fill="#FBFDFE"/>
<path d="M410.382 50.9399H404.223L400.148 56.7235H400.281L398.518 59.2049C397.154 61.1328 398.518 63.8241 400.887 63.8241C401.816 63.8241 402.688 63.366 403.237 62.6025L406.118 58.575L411.216 51.1308C411.254 51.0736 411.272 51.0163 411.31 50.9399H410.382Z" fill="#1FA7D9"/>
<path d="M389.024 50.9402V56.7238H400.148L404.223 50.9402H389.024Z" fill="#1FA7D9"/>
<path opacity="0.3" d="M389.024 50.9399V56.7235H400.276L404.351 50.9399H389.024Z" fill="#253040"/>
<path d="M397.704 70.3708L398.291 69.55L399.087 68.4429C400.47 66.515 399.106 63.8428 396.737 63.8428C395.808 63.8428 394.937 64.3009 394.387 65.0644L391.886 68.6147L386.39 76.6315H387.148H393.269L397.704 70.3708Z" fill="#BFED45"/>
<path d="M409.544 70.3691H397.697L393.262 76.6315H409.544V70.3691Z" fill="#BFED45"/>
<path opacity="0.3" d="M409.544 70.3691H397.697L393.262 76.6315H409.544V70.3691Z" fill="#253040"/>
</svg>
